<svg version="1.0" xmlns="http://www.w3.org/2000/svg" width="1280pt" height="895pt" viewBox="0 0 1280 895"><g transform="translate(0.000000,895.000000) scale(0.100000,-0.100000)" fill="#ffffff" stroke="none"><path d="M11181 8916c-8-10-7-24 8-57 10-24 25-68 32-98 12-49 12-54-6-67-12-9-46-14-1e2-14-239 0-456-26-1535-186-91-13-228-33-305-44-77-12-3e2-46-495-76-195-31-382-60-415-64-53-7-163-24-480-75-150-24-1160-189-1268-207-52-9-70-9-80 1-8 8-11 50-9 144 7 253-63 510-170 624-38 40-54 38-172-20-61-31-167-76-236-101-131-47-415-126-453-126-12 0-39-5-59-11-49-13-49-34-1-96 79-103 106-218 101-425-4-167-5-168-125-187-43-7-98-16-123-21-25-5-215-37-424-71l-379-62-83 42c-45 23-165 69-266 102-1e2 33-213 74-250 91-59 27-74 30-105 22-66-17-64-34 11-116 75-80 146-179 146-202 0-21-9-23-250-52-796-96-1244-97-1745-4-60 11-124 25-142 31-53 17-56 28-32 115 33 119 30 324-6 449-38 131-80 193-163 242-139 82-288-79-353-380-11-51-20-123-20-162-2-89-8-97-62-81-66 21-476 178-642 247-229 94-295 119-316 119-24 0-24-12-1-33 22-20 422-184 727-298 132-49 256-97 275-105 31-13 43-31 112-171 84-170 83-161 31-231-24-32-28-34-72-27-144 21-638 131-831 185-321 90-391 103-360 65 15-18 84-38 445-130 285-72 702-165 741-165 17 0-5-54-62-149-36-60-85-156-108-213l-43-103-259 2c-142 1-373 7-512 13-187 9-257 9-265 1-8-8-8-14 0-22 13-13 403-36 764-45 125-4 232-10 238-14 9-5 14-57 16-171 4-191 21-259 1e2-386l26-42-23-14c-13-8-52-20-88-26-277-49-552-94-7e2-116-310-45-297-42-287-70 4-8 18-15 34-15 37 0 462 62 650 95 81 15 173 30 203 35 30 4 89 15 130 24 116 25 132 22 202-30 179-131 360-167 581-115 103 25 127 21 127-19 0-27-18-37-146-75-214-65-795-261-984-333-249-93-652-260-669-277-15-15-7-35 15-35 7 0 135 50 283 110 344 141 551 217 936 344 446 149 563 182 583 170 9-6 34-62 56-125 35-103 39-124 40-219 1-90-2-111-21-145-38-70-114-125-196-140-44-9-47 2-12 43 32 38 65 110 65 142 0 76-61 168-134 201-134 61-286-44-286-196 0-61 21-105 75-159 92-93 205-118 335-75 164 54 248 170 249 347 1 74-4 95-44 206-25 69-45 129-45 135 0 23 49 41 330 121 81 23 364 101 475 130l119 32 16-23c8-12 75-138 147-279l133-257-48-18c-26-9-94-40-151-69-88-43-119-65-191-136-107-105-144-172-144-264 0-68 11-95 58-144 41-44 69-58 144-72 34-6 79-22 99-35 20-14 54-30 77-36 63-17 208-5 301 25 44 14 85 26 90 26 6 0 10-89 10-247 1-258 13-378 55-561 19-81 19-102-1-102-13 0-357-166-936-452-347-170-398-214-410-348-6-63 4-90 68-176 88-119 132-132 385-114l172 12 44-25c76-44 84-44 853 8 127 9 267 19 313 24 119 10 131-11 58-113-105-147-149-274-146-416 6-324-6-1058-21-1188-12-113-8-155 23-217 63-125 198-175 340-125l63 22 135-69c262-135 556-237 1045-363 130-33 401-93 555-121 30-6 73-14 95-19 203-44 772-70 1135-51 545 28 840 56 1430 137 216 29 661 102 820 134 25 5 131 25 235 45 199 38 242 46 470 95 275 58 914 203 1145 260 91 22 248 61 350 85 102 25 307 77 455 115 149 39 309 80 357 91 68 17 89 26 94 41 3 11 2 24-3 29-5 5-123-21-278-61-588-152-1310-329-1595-390-19-4-127-28-239-54-280-64-723-154-1056-215-353-65-425-73-425-48 1 25 26 107 35 116 15 13 129 32 177 30 24-1 52 2 63 8 11 6 65 18 120 27 117 19 132 22 455 80 135 25 281 50 325 56 44 7 107 19 140 27 33 8 139 30 235 48 96 19 227 45 290 59 63 14 338 75 610 136 784 174 1104 247 1130 260 18 8 28 170 11 170-6 0-44-7-85-16-81-18-106-15-106 14 0 30 19 40 111 59 78 17 84 20 84 43 0 28 2 27-114 14-52-6-63-5-59 7 3 8 36 21 82 31 87 18 101 27 92 56-6 17-11 19-36 12-16-5-59-11-95-15-61-7-67-6-63 10 2 13 29 27 93 47 49 16 93 34 97 41 10 16 10 57 0 57-4 0-46-13-93-29-48-16-103-33-122-36-52-10-62-26-42-66 23-44 11-53-105-73-52-9-115-21-140-26-64-13-240-44-417-75-166-29-182-27-2e2 22-6 15-23 61-39 101-23 62-26 75-13 83 22 13 92 11 139-6 50-18 51-2 1 32-37 25-230 92-248 86-23-8-13-33 36-92 43-53 111-189 111-223-1-40-14-44-378-104-122-20-233-33-247-30-17 4-26 15-30 34-16 84-28 119-45 137-18 17-23 18-52 6-99-39-203-70-281-84-48-8-91-18-95-21-3-4-1-27 6-51 15-55 15-92 2-1e2-5-3-56-12-112-20-57-8-137-19-178-25-221-31-536-72-615-80-49-5-128-14-175-20-264-31-836-81-1097-96-126-7-133-3-133 73 0 52-18 113-36 120-7 3-62-4-121-16-60-12-142-21-184-21-96 0-103-7-83-78 14-47 14-55 1-76-14-20-26-24-108-29-255-19-1057 11-1309 48-120 18-223 41-249 55-12 6-21 21-21 35 0 30-18 77-33 87-7 4-62 8-123 8-72 0-148 7-215 21l-102 20-22-27-21-26-98 27c-158 45-157 21-11 295 69 129 140 263 157 298 24 46 38 62 53 62 11 0 74-12 140-25 220-45 375-58 645-52 255 5 359 17 569 63 392 87 777 264 1095 503 52 39 97 71 1e2 71 8 0 8-131 0-198l-7-52h-112c-125 0-185-14-280-63-69-36-192-154-218-208-74-158-51-283 76-408 40-39 91-91 115-115 131-136 423-121 621 31 69 54 137 133 165 193 18 40 21 73 27 280 4 129 8 393 8 586l1 351 30 45c49 74 55 76 86 27 39-62 54-130 54-244 0-129-18-202-79-323-67-134-76-169-55-222 17-42 44-62 102-75 26-5 32-11 32-34 0-61 69-108 133-90 39 10 1e2 71 140 140 33 55 80 198 103 309 27 129 25 339-4 450-32 117-88 227-177 345-41 55-75 106-75 113 0 10 54 128 64 139 1 2 148 45 327 97 418 121 799 236 969 291 74 24 203 65 285 91 185 58 654 218 833 285 91 34 138 47 149 41 9-5 32-40 52-77 41-79 63-97 86-75 13 14 11 21-25 69-47 62-58 97-39 116 8 8 85 41 173 74 410 157 978 418 984 454 10 50-5 49-125-12-384-191-1043-465-1066-442-18 18 0 38 50 56 367 135 707 277 943 393 183 91 195 99 195 125 0 15-3 27-7 27-4-1-90-41-190-90-101-50-190-90-2e2-90-19 0-59 63-49 77 3 6 44 27 91 47 248 108 351 161 356 183 3 12 3 26 0 32-4 5-71-21-159-63-249-119-395-179-421-172-16 4-29-1-43-18-12-13-68-42-129-66-114-44-273-1e2-285-1e2-4 0-9 21-12 48-3 26-7 57-9 70-3 21 11 28 187 93 125 46 199 68 217 65 18-4 30 1 40 14 7 10 92 52 188 93 267 113 419 187 425 208 8 26-3 59-20 59-8 0-20-9-28-20-20-29-439-223-529-245-37-9-46 15-22 56 16 25 47 43 189 103 94 40 205 89 247 109 43 21 84 34 93 31 22-9 74 53 75 89 0 15-1 27-3 27-2 0-50-24-108-54-471-246-1206-496-2118-722-159-40-166-39-166 24v37l-140 6c-77 3-182 14-234 24l-95 18-18-23c-15-18-18-40-18-125 0-78-4-105-15-115-13-11-181-50-511-119l-131-27-6 190c-9 282-48 508-132 761-79 239-175 431-327 659l-80 119 78 76c308 297 298 288 355 306 54 17 58 17 153-5 160-36 131-60 479 398 162 213 311 413 330 444 43 66 29 62 327 103 570 78 738 90 1265 90 424-1 506-5 850-45 73-8 222-28 249-33 6-1 11 7 11 18 0 21-19 27-140 45-398 58-950 83-1360 61-354-19-525-36-927-93-120-17-224-28-231-25-30 11-28 65 2 120 16 29 33 69 36 90 11 55 33 77 90 88 75 14 373 56 520 73 460 53 1121 54 1485 1 52-7 133-19 180-25 47-7 141-23 209-36 118-23 153-22 137 4-8 13-109 38-251 62-38 6-94 18-124 26l-54 15 37 38c20 21 45 60 56 87l18 49 64-2c35-1 103-11 151-23 85-19 107-19 107 0 0 17-38 30-156 55-65 13-123 30-131 38-11 11-11 24-2 68 14 70 33 99 64 99 24 0 75-11 167-36 37-10 47-10 51 0 9 24-8 34-96 55-102 25-139 38-148 53-10 15 1 91 15 105 9 10 32 8 110-12 53-14 101-27 106-30 11-7 20 19 12 32-4 6-52 23-106 39-55 15-108 36-118 46-13 13-18 34-19 76-1 69-18 131-40 145-12 8-38 5-92-7-55-13-106-17-189-15l-113 4v-57c0-31-3-59-6-62-3-3-43-1-90 5-136 16-427 38-524 40-49 1-103 4-119 8-34 7-40 23-51 134-5 48-13 75-26 88-22 22-52 25-68 5zm1257-273c-7-36-147-56-231-32-52 14-37 29 31 30 31 0 75 4 97 8 71 15 107 13 103-6zm-6096-10c23-26 53-117 73-214 12-64 16-124 13-237-3-136-5-154-23-172-21-20-106-37-535-104-91-14-178-28-195-31-16-2-34-1-40 3-6 4-10 73-11 167-1 88-7 189-14 225-7 36-14 81-17 101-5 41-26 31 213 98 133 37 299 98 424 155 66 30 92 32 112 9zm4886-74c2-52-1-69-14-80-12-10-63-16-173-21-196-9-382-27-596-57-33-5-122-17-198-27l-138-19-36 43c-21 25-43 42-56 42-12 0-55-17-97-39-175-90-289-120-650-171-41-6-102-15-135-20-33-5-166-26-295-45-129-19-262-40-295-45-33-5-121-19-195-30-74-12-173-27-220-35-47-7-125-19-175-26l-90-12-91 36c-93 38-110 42-138 31-22-8-20-27 4-49 21-19 26-40 11-49-7-5-132-26-511-87-69-11-208-33-310-49-102-17-209-35-239-40-30-6-67-10-83-10-24 0-28 4-28 28 0 16 7 49 16 75 14 41 20 48 54 57 42 11 467 82 1280 214 153 25 1139 179 1255 196 33 4 141 20 240 35 99 14 239 35 310 46 195 29 263 39 340 49 39 5 131 19 205 30 348 52 463 67 7e2 89 47 5 144 8 215 7l130-1 3-66zm602 52c251-26 250-26 250-101 0-79-8-83-135-71-61 6-229 16-375 22-302 12-292 9-283 93 9 82-1 79 238 72 115-3 253-10 305-15zm514-80c58-12 94-25 103-37 23-32 13-108-15-119-15-6-106 8-257 39l-60 12-3 48c-2 26 2 54 9 62 16 20 114 18 223-5zm-459-132c146-13 165-20 165-56 0-46-32-143-51-153-11-6-61-6-136 0-65 5-229 10-364 10-188 0-249 3-257 13-16 19 24 167 51 191 21 17 36 18 247 12 124-4 279-11 345-17zm-677-16c3-22-31-147-47-172-6-9-56-18-167-27-145-12-330-33-474-54-255-36-331-43-340-34-9 9-40 152-40 186 0 12 12 20 38 26 46 12 373 58 507 72 55 6 134 15 175 19 41 5 136 8 210 7 131-1 135-2 138-23zm1073-34c68-11 129-25 136-31 16-13 16-45 2-106-21-82-17-82-247-50-117 16-119 19-97 104 20 75 38 104 66 104 9 0 73-9 140-21zm-2224-81c32-41 56-179 33-193-11-7-86-20-195-35-38-5-115-16-169-25-147-22-174-21-186 11-6 15-11 47-13 72-2 44-2 45 38 57 22 7 112 36 2e2 63 88 28 169 53 180 55 43 10 103 6 112-5zm-8462-42c26-26 62-131 71-210 8-70-18-193-61-283-31-66-37-73-63-73-33 0-138 34-158 51-51 42 57 421 147 518 25 27 34 26 64-3zm7814-55c39-39 74-133 64-170-6-24-7-24-228-56-198-29-252-37-4e2-60-150-23-352-54-425-65-36-5-79-12-97-16-28-6-38-1-85 44-29 27-86 66-125 86-40 20-73 40-73 45 0 10 56 21 455 82 110 17 227 34 260 39 108 15 469 70 515 79 79 15 118 13 139-8zm2356-92c0-56 4-69 28-98 15-18 27-37 27-41 0-10-651-13-675-3-19 7-19 22 1 44 8 9 28 48 43 85 21 52 34 70 52 75 13 4 137 6 274 6l250-2v-66zm-930 31c3-5-1-23-10-39-19-38-19-84 0-121 14-27 14-30-2-38-10-6-47-13-83-16-36-4-161-20-278-37-218-30-287-35-295-21-8 12 10 173 20 183 8 8 189 38 413 69 41 6 102 14 135 19 85 12 93 12 1e2 1zm1339 2c3-5-3-29-12-55-16-45-16-47 8-94 14-26 26-52 29-57 5-13-233 8-257 23-9 5-1 20 27 48 21 23 41 54 45 70 15 61 31 73 96 73 32 0 61-4 64-8zm-2076-186c4-118 5-118-180-145-250-38-350-50-364-44-11 4-13 23-8 92 4 47 11 91 16 98 10 12 64 23 283 54 83 11 152 23 155 25 2 3 25 4 50 2l45-3 3-79zm-3713-6c10-17-15-89-33-94-9-3-66-5-127-4-102 0-115-2-177-30-37-17-87-46-112-65-41-31-58-36-179-56-192-30-181-33-172 37 3 31 13 66 20 78 18 27 7 25 695 137 48 8 79 7 85-3zm1373-33c40-64 65-124 59-141-8-19-43-27-257-60-352-55-941-149-1030-166-52-10-334-50-352-50-24 0-2 17 41 33 67 24 161 95 191 146 45 76 52 82 120 96 71 15 196 36 825 136 72 11 164 27 205 34 41 7 96 14 123 14 45 1 49-1 75-42zm1718 21c5-7 7-46 7-87-2-98-12-109-81-85-49 18-54 18-119 1-37-10-90-29-118-41-90-42-128-50-220-49-71 1-99-3-135-18-65-30-409-81-434-65-20 13-68 150-59 172 6 17 20 21 113 34 88 12 216 32 430 65 85 14 220 34 3e2 46 80 11 163 24 185 29 62 12 123 11 131-2zm-1371-33c58-17 112-56 101-73-12-19-35-14-146 32-121 50-142 73-59 63 30-4 77-13 104-22zm-2618-96c19-19-11-132-41-151-6-4-60-7-121-6-99 1-117-2-175-27-89-37-150-53-252-66-75-10-93-9-128 5-22 9-53 16-68 16-20 0-42 13-74 44-54 51-63 44 102 71 58 10 245 41 415 70 171 29 315 53 321 54 5 0 15-4 21-10zm2440-15c-3-3-12-4-19-1-8 3-5 6 6 6 11 1 17-2 13-5zm294-66c21-12 45-36 53-53 9-18 22-38 31-45 22-18 18-49-7-59-21-9-150-30-268-46-25-3-51-2-57 3-13 8-28 66-40 149-5 41-5 42 28 47 19 3 57 10 84 15 87 15 135 13 176-11zm1549-13c-7-8-17-15-22-15-6 0-45-15-87-34-114-51-119-52-133-21-9 21-9 29 5 42 16 17 129 40 206 42 38 1 42-1 31-14zm-5498-14c29-11 18-16-87-36-117-22-151-20-171 10-28 43-12 48 117 41 65-4 129-10 141-15zm3568-1c17-9 41-69 55-135 11-56-2-62-230-99-115-20-374-62-575-96-201-33-412-69-470-80-71-14-147-20-235-20-374-1-725-65-1063-196-64-25-142-47-173-51l-57-6-32 64c-18 34-39 81-46 103-18 49-15 51 81 66 38 6 144 25 235 41 316 58 436 79 650 114 118 19 238 39 265 45 28 5 217 37 420 70 506 83 578 95 745 121 140 21 402 65 408 68 2 0 12-3 22-9zm-6380-44c65-19 69-33 27-99-25-38-41-55-51-51-17 7-43 68-52 124-8 46 0 49 76 26zm4409-34c11-38 47-80 89-101 12-7 52-15 88-18 38-3 60-9 52-14-16-9-220-49-423-83-198-33-255-40-255-29 0 5 19 29 42 53 38 42 88 129 88 157 0 19 27 29 120 46 47 9 94 18 105 20 11 3 34 5 52 6 29 1 33-3 42-37zm-1758-38c-19-8-37-12-40-9-9 10 22 25 49 24 23 0 22-1-9-15zm-2246-29c542-105 965-111 1720-25 39 4 138 16 221 25 83 10 160 15 170 11 18-7 18-8 1-21-11-8-51-23-90-35-40-12-85-27-102-35-16-7-44-16-62-20-29-6-94-64-104-93-7-18-577-90-964-121-305-26-1014-6-1048 28-8 8-8 19 0 39 26 64 107 238 116 250 13 16 45 15 142-3zm6643-45c-29-34-38-39-73-39-22 1-53-4-70-11-50-19-104-80-120-134-8-27-21-56-29-65-8-9-16-25-18-36-4-22-57-37-172-50-73-7-76-4-50 48 14 25 16 50 11 129-6 88-4 99 12 108 10 5 78 19 151 32 107 17 138 19 163 10 26-10 34-9 49 5 17 15 108 40 156 42 22 1 22 0-10-39zm-3546-58c-4-50-2-54 37-93 45-46 49-54 25-63-55-21-73-3-128 124-26 61-26 65-9 78 10 7 32 12 48 10 30-3 30-4 27-56zm2932-17c8-9 13-22 9-30-4-12-22-15-82-13-94 2-141-13-181-58-46-53-42-101 11-159 23-25 39-48 35-52-3-3-59-16-123-29l-118-22-130 43c-185 61-441 121-580 136-20 2 63 18 245 49 102 17 210 35 240 40 30 5 154 26 275 45 121 19 245 40 275 45 30 5 66 11 80 14 14 2 26 4 27 5 1 0 8-6 17-14zm-4268-152c3-10 25-60 51-111 25-52 42-97 37-102-5-4-38-13-74-19-36-5-109-17-162-26l-98-16-67 27c-112 45-269 44-493-3-96-20-138-45-161-98l-19-42-92-12c-51-7-127-17-168-22-41-6-106-11-145-12-62-2-75 1-111 26-102 69-247 94-374 63-38-10-74-14-80-11-16 10-35 53-74 164-21 60-33 108-28 113 5 5 66 4 143-3 205-18 688-23 904-10 241 16 683 64 920 101 78 12 85 11 91-7zm965-248c32-60 56-111 54-114-6-5-277-61-301-61-16 0-27 14-48 60-37 81-55 168-37 179 7 4 45 14 84 21 40 7 88 16 107 21 75 16 79 13 141-106zm3612 69c14-73-38-144-2e2-272l-41-32-89 54c-48 29-144 82-213 116-146 74-151 67 75 1e2 125 19 255 42 385 69 66 14 73 11 83-35zm-6651-54c14-30 34-78 44-107l18-53-34-36c-44-46-86-64-149-64-59 0-81 7-81 26 0 34 147 296 163 292 7-2 24-28 39-58zm2265-155c34-66 63-125 63-131 0-13-133-46-190-48-33-1-35 0-41 45-4 25-14 59-22 75-19 37-101 114-122 114-8 0-15 4-15 9 0 5 33 16 73 25 39 8 92 19 117 24 25 5 52 9 60 8 8-1 43-54 77-121zm886-80 26-54-37-28c-20-15-78-60-128-1e2-50-40-93-73-96-73-8 0-88 176-88 192 0 8-5 19-10 24-20 20 14 33 151 63 74 16 139 29 144 30 6 1 23-24 38-54zm-1973-145c46-93 82-170 80-172-3-2-39-12-80-22-41-10-139-33-218-53-161-38-179-36-168 22 12 62-24 203-71 277-28 45-29 65-5 72 9 2 67 10 127 16 61 7 130 16 155 20 98 17 86 27 180-160zm-1285 60c3-6-5-44-20-85-19-57-26-96-26-158 0-122 13-164 79-245 21-27 31-47 25-53-18-18-145-39-166-28-23 13-80 133-97 208-16 69-8 177 21 261 25 73 34 89 64 1e2 29 12 113 12 120 0zm529-53c101-47 153-120 177-250 11-57 10-70-2-82-17-16-163-55-209-55-36 0-43 12-129 243-55 146-56 160-8 171 42 9 119-3 171-27zm1896-69c0-94 15-130 78-185 44-38 39-47-42-68-88-23-99-20-175 41-88 70-110 116-91 193 7 28 19 52 28 56 35 15 148 43 175 44l27 1v-82zm-2146-5c25-51 126-310 126-325 0-23-169-66-214-54-31 8-61 61-74 134-10 56-2 118 22 175 17 42 83 117 102 117 8 0 24-21 38-47zm1207-327c39-76 67-141 62-145-4-4-129-40-278-80-148-40-346-95-440-122-93-27-178-49-187-49-20 0-38 29-38 59 0 12 21 36 58 64 83 64 139 129 173 2e2 16 34 29 67 29 73 0 34 52 54 285 113 221 55 241 58 253 43 7-9 45-79 83-156zm989 25c0-5-26-28-58-52-136-1e2-206-268-159-382 13-30 88-107 105-107 4 0 13-4 20-9 10-6 6-22-19-75-28-60-33-64-45-49-7 10-14 22-14 26 0 5-45 95-101 2e2-123 233-165 335-142 344 27 10 67 6 113-12 64-24 132-16 170 20 16 15 30 37 32 49 2 14 17 26 48 38 25 9 46 17 48 17 1 1 2-3 2-8zm-1770-60c0-86-124-231-155-181-3 6-17 40-30 78-21 58-22 69-10 81 16 16 124 48 168 50 23 1 27-3 27-28zm-241-112c49-109 50-124 10-145-26-14-63-19-161-22-109-3-138-1-195 17-78 24-166 84-161 108 5 28 92 46 218 45h116l16 28c16 28 35 36 94 39 30 1 33-3 63-70zm10187-1004c13-34-5-62-53-83-164-69-703-250-1008-337-582-167-641-183-656-168-18 18-28 71-16 87 7 9 85 34 187 61 96 24 207 53 245 64 39 10 117 31 175 46 305 80 903 269 1045 331 40 18 74 17 81-1zm89-355c25-26 27-32 15-45-26-25-614-255-653-255-36 0-50 76-19 102 9 8 58 29 107 46 108 36 455 169 463 177 16 15 61 2 87-25zm-722-62c-3-35-10-70-14-80-9-17-219-89-589-202-344-104-370-111-388-1e2-10 6-30 36-46 68-25 49-27 59-15 71 8 7 84 32 169 55 85 23 2e2 55 255 71 55 16 123 36 150 44 68 19 351 104 4e2 120 22 7 50 13 62 14 20 1 21-2 16-61zm-1423 17c52-8 125-15 162-15 64 0 95-13 68-30-24-15-310-81-337-78-26 3-28 6-31 57-5 91-10 89 138 66zm253-120c9-8 19-29 22-47 11-47-9-57-189-102l-159-40-18 23c-21 25-26 86-8 96 8 6 305 81 331 84 4 1 13-6 21-14zm1172-75c10-31 9-80-1-90-17-17-569-204-663-225-24-5-32-2-42 17-6 13-23 35-37 50-14 15-23 31-19 34 4 4 134 46 289 95 156 48 315 99 353 112 89 31 112 33 120 7zm-1599-35c9-14 17-42 18-62 1-43 27-33-279-106-339-81-409-97-422-97-11 0-10 63 3 126 4 25 1 23 198 64 78 17 211 45 296 64 85 19 158 35 162 35 4 1 15-10 24-24zm471-53c6-4 25-34 42-66 37-70 33-79-46-102-50-15-58-15-92 0-57 25-102 28-155 12-47-14-49-14-72 9-23 23-32 59-16 69 11 6 296 83 317 85 6 0 15-3 22-7zm1151-94c-4-27-152-84-668-258-659-222-1811-572-1827-556-4 3 5 32 18 63l25 58 94 26c52 15 183 50 290 78 291 77 611 167 830 231 107 32 240 70 295 85 55 14 179 52 275 85 96 32 252 83 345 114 94 31 193 64 220 75 28 10 63 20 78 20 24 1 28-3 25-21zm-1526-78c21-36 38-68 38-72 0-4-8-12-18-17-36-19-841-225-849-217-3 2 3 50 13 105l19 101 115 26c63 14 221 52 350 84 129 32 248 58 265 57 25-2 35-11 67-67zm521-78c40-41 46-51 34-60-31-26-1441-421-1454-408-3 2 8 42 22 89l27 85 66 16c187 46 526 133 672 173 122 33 175 43 205 39 167-24 211-15 242 49 12 25 28 38 57 49 65 23 78 20 129-32zM42e2 2523c-14-88-21-105-58-156-24-31-47-57-52-57-26 0 3 117 53 215 67 134 80 134 57-2zm-44-318c-7-74-20-115-36-115-23 0-21 34 5 105 15 41 29 75 32 75 3 0 3-29-1-65zm8348-684c3-5 0-13-7-19-11-10-428-97-681-142-122-22-146-21-146 4 0 19 38 29 222 61 78 13 217 38 308 55 295 56 295 56 304 41zm-1606-122c7-13 11-37 10-54l-3-30-140-22c-77-13-156-22-175-20-32 2-35 5-35 32 0 29 1 30 105 56 58 15 128 36 155 47 59 24 66 23 83-9zm1602 1c0-22-6-33-22-40-43-19-674-156-738-160-46-4-50-1-50 35 0 44 12 49 160 75 136 24 515 98 560 109 19 5 47 9 63 10 24 1 27-3 27-29zm-882-52c-3-26 5-24-345-88-256-46-303-49-303-21 0 11 5 23 12 27 15 10 550 101 601 103 34 1 38-1 35-21zm1016-24c31-12 18-43-21-53-80-19-84-20-90-4-8 20 18 43 58 53 19 4 35 8 36 9 1 1 8-2 17-5zm-1740-70c22-8 20-41-2-53-24-13-247-51-296-51-41 0-58 22-35 45 11 11 168 43 311 64 3 1 13-2 22-5zm1390-26c8-13 7-21-1-29-13-13-147-46-593-145-162-36-322-72-355-79-216-49-423-88-438-82-15 6-16 10-4 39 18 44-3 38 437 124 325 63 539 108 785 165 134 31 153 31 169 7zm-790-31c6-24 6-41 0-47-10-10-496-110-534-110-39 0-18 93 25 110 13 5 80 19 147 30 68 12 166 29 218 40 126 24 133 23 144-23zm-6082 9c24-7 69-21 1e2-30 31-10 59-23 61-29 7-22-16-88-34-98-14-7-51 0-144 27-166 49-166 49-131 109 28 46 29 47 67 41 21-3 58-12 81-20zm5086-43c2-13-4-26-16-32-16-9-294-52-577-91-38-6-101-15-140-20-38-6-171-24-295-40-205-26-228-27-257-14-43 21-68 50-52 60 7 4 123 20 258 35 380 43 796 96 926 118 28 5 73 8 1e2 8 43-2 50-5 53-24zm-4714-59c61-15 135-33 165-41l53-14-5-41c-9-70-19-74-139-49-151 31-252 64-256 83-2 9 4 32 12 52 18 44 24 44 170 10zm2350 10c11-29 6-91-8-103-9-8-63-11-167-9l-154 3-3 33c-5 48 12 62 72 62 28 1 80 7 116 14 93 19 137 19 144 0zm2756-19c0-40-36-85-67-85-10 0-80-12-156-26-161-31-170-29-147 39 10 26 24 46 40 54 31 14 229 50 288 52 42 1 42 1 42-34zm-5591-34c36-11 99-29 139-41 84-24 88-34 42-108-47-77-58-79-186-42-102 31-164 55-164 65 0 9 74 131 84 137 14 10 10 11 85-11zm5174-33c-1-15-8-40-15-55-12-26-19-28-83-34-39-3-90-13-115-22-37-14-398-76-727-126-117-18-118-17-163 44-22 30-40 59-40 64 0 12 0 12 305 52 132 18 265 35 295 40 30 4 89 12 130 18 41 6 129 20 195 30 66 11 143 18 170 18 48-2 50-3 48-29zm-4248-18c102-21 242-40 291-40 89 0 115-9 130-46 20-47 17-72-6-79-60-19-552 52-594 86-20 16-20 17-1 59l19 42 56-6c30-3 78-11 105-16zm2839-5c22-22 30-56 16-65-12-7-43-11-235-31-457-45-669-58-680-39-12 19 15 80 38 85 12 3 94 9 182 15 154 10 331 23 520 39 138 12 143 12 159-4zm-3270-74c143-35 146-36 146-58 0-22-67-130-85-137-15-5-286 55-337 75-38 15-35 34 14 103l41 58 46-5c25-3 104-19 175-36zm1940-1c13-12-3-66-26-86-19-18-45-19-462-18-242 0-461 5-486 10-49 10-68 39-57 86l7 25 507-4c280-3 512-9 517-13zm384-11c2-14-6-36-17-50-19-23-24-24-170-27-170-4-178-1-148 63 15 31 20 34 69 38 29 2 1e2 3 158 3l105-1 3-26zm2511-41c9-25 8-35-1-44-15-14-164-41-174-31-9 8 14 63 32 78 16 13 66 26 106 28 21 1 28-5 37-31zm-5484-12c18-13 18-14-4-42-18-22-21-36-16-66 6-33 4-38-12-38-23 1-103 37-103 47 0 12 96 113 107 113 5 0 18-6 28-14zm3975-6c18-34 24-105 9-117-17-13-71-20-464-62-342-37-388-41-535-46-120-5-142-4-125 7 31 21 88 82 110 119 23 39 24 39 285 59 174 12 442 37 540 49 122 16 168 13 180-9zm-2879-24c68-13 171-27 229-31 58-3 123-10 145-13l40-8v-60c0-41-6-69-18-87l-18-27-102 6c-159 8-263 25-565 91-12 3-25 10-28 15-3 5 13 41 36 80l42 71 58-6c32-4 113-17 181-31zm3096-18c7-6 13-14 13-19 0-19-27-8-56 22l-29 30 30-11c16-6 35-16 42-22zm877-12c14-19 26-37 26-41 0-9-46-24-108-34-65-12-122-22-277-50-359-66-428-73-438-48-10 27 6 79 27 88 11 5 95 20 186 34 225 34 406 63 460 74 82 16 96 14 124-23zm-5668-8c9-18 31-46 48-62 30-28 30-29 6-21-14 4-52 19-84 33l-59 26 34 28c18 15 34 28 36 28 1 0 10-15 19-32zm2622-24c166-4 302-11 302-15 0-4-5-20-10-34-9-23-6-30 19-55 36-37 72-46 121-31 50 15 96 54 121 102 17 35 23 39 58 39 22 0 45 2 53 5 7 3 19 1 26-4 12-7 11-13-1-37-20-39-7-68 39-92 25-13 33-21 25-27-32-19-705-40-995-30-242 8-252 11-235 67 5 18 9 44 9 58 0 14 7 36 16 49 16 22 22 23 83 18 36-4 202-9 369-13zm2056-3c10-15-22-20-34-5-10 11-9 14 8 14 12 0 23-4 26-9zm-3690-12c38-11 38-11 32-51-6-34-2-48 19-79l25-39h-27c-53 1-263 65-263 80 0 5 15 17 33 29 18 11 43 31 56 45 27 29 61 33 125 15zm-408-90c85-27 198-61 252-75 53-14 149-39 212-55 116-30 133-34 295-68 510-107 545-110 1079-118 607-9 1158 25 1814 111 120 16 142 14 142-14 0-9 11-34 25-54 14-20 25-41 25-46 0-12-11-15-230-45-564-77-1019-116-1525-131-299-8-792 17-960 50-44 9-102 20-130 25-367 70-782 176-1065 271-204 69-340 125-354 148-3 4 21 7 52 5 41-2 75 3 122 20 36 13 71 25 78 26 8 0 83-22 168-50zm4238 16c24-24 30-56 13-72-17-17-155-40-180-30-34 13-17 96 23 110 34 12 129 7 144-8zm-226-47c5-57-10-76-66-83-26-3-74-10-107-15-227-34-654-81-1e3-109-304-25-563-33-942-30-423 4-446 7-411 46 9 10 25 37 37 60l21 42 462-1c501-1 801 12 1238 52 209 20 675 72 680 76 2 3 22 4 45 2 38-3 40-5 43-40zm-3079 2c86-17 174-35 196-40 22-5 64-12 92-16 29-3 55-9 58-14 3-4-2-24-10-43-11-27-12-43-5-62 6-15 10-29 10-32 0-8-156 5-2e2 17-19 5-84 19-145 30-60 12-147 30-193 41-142 34-161 47-94 67 21 6 53 27 72 47 19 19 40 35 48 35 8 0 85-14 171-30z"/><path d="M9845 3501c-31-14-65-54-75-92-6-19-10-195-10-410v-376l-54-6c-187-19-326-195-275-348 14-42 61-93 106-114 18-9 33-22 33-30 0-20 57-83 91-101 16-8 56-17 89-21 161-16 321 91 351 235 18 90 20 91 93 89 59-2 67 0 97 28 72 68 114 217 107 378-6 140-25 181-162 364-63 84-123 170-133 190-11 24-32 45-55 56-31 15-39 26-52 71-9 29-24 60-35 70-22 20-87 30-116 17z"/></g></svg>